# xmcd
#
# Track frame offsets: 
#        150
#        10892
#        24260
#        37167
#        49107
#        64030
#        78250
#        91210
#        106392
#        116310
#        129367
#        143425
#
# Disc length: 2080 seconds
#
# Revision: 4
# Processed by: cddbd v1.5.2PL0 Copyright (c) Steve Scherf et al.
# Submitted via: ExactAudioCopy v0.95b4
#
DISCID=8b081e0c
DTITLE=Various Artist - The Blues (Volume 4)
DYEAR=1988
DGENRE=Blues
TTITLE0=Billy Stewart - Billy's Blues, Pt. Two
TTITLE1=Little Walter - Last Night
TTITLE2=Lowell Fulson - Trouble, Trouble
TTITLE3=Larry Williams - My Baby's Got Soul
TTITLE4=Eddie Boyd - Third Degree
TTITLE5=Willie Mabon And His Combo - I Don't Know
TTITLE6=Betty James - I'm A Little Mixed Up
TTITLE7=Muddy Waters - She's 19 Years Old
TTITLE8=T.V. Slim - Flat Foot Sam
TTITLE9=Little Walter - Boom Boom
TTITLE10=Memphis Slim And The House Rockers - I Guess I'm A Fool
TTITLE11=John Lee Hooker - Leave My Wife Alone
EXTD=
EXTT0=
EXTT1=
EXTT2=
EXTT3=
EXTT4=
EXTT5=
EXTT6=
EXTT7=
EXTT8=
EXTT9=
EXTT10=
EXTT11=
PLAYORDER=
